<svg xmlns="http://www.w3.org/2000/svg" viewBox="0 0 1200 192" width="1200" height="192" role="img" aria-label="Two speakers, one timeline">
<rect width="1200" height="192" fill="#f7f7f4"/>
<rect x="0" y="44.5" width="2.4" height="1" fill="#262323"/><rect x="4" y="41.81" width="2.4" height="6.39" fill="#262323"/><rect x="8" y="35.14" width="2.4" height="19.71" fill="#262323"/><rect x="12" y="31.86" width="2.4" height="26.28" fill="#262323"/><rect x="16" y="32.63" width="2.4" height="24.75" fill="#262323"/><rect x="20" y="30.96" width="2.4" height="28.08" fill="#262323"/><rect x="24" y="33.89" width="2.4" height="22.23" fill="#262323"/><rect x="28" y="29.79" width="2.4" height="30.42" fill="#262323"/><rect x="32" y="32.99" width="2.4" height="24.03" fill="#262323"/><rect x="36" y="32.31" width="2.4" height="25.38" fill="#262323"/><rect x="40" y="36" width="2.4" height="18" fill="#262323"/><rect x="44" y="37.39" width="2.4" height="15.21" fill="#262323"/><rect x="48" y="40.28" width="2.4" height="9.45" fill="#262323"/><rect x="52" y="39.33" width="2.4" height="11.34" fill="#262323"/><rect x="56" y="43.34" width="2.4" height="3.33" fill="#262323"/><rect x="60" y="40.77" width="2.4" height="8.46" fill="#262323"/><rect x="64" y="40.14" width="2.4" height="9.72" fill="#262323"/><rect x="68" y="40.77" width="2.4" height="8.46" fill="#262323"/><rect x="72" y="41.63" width="2.4" height="6.75" fill="#262323"/><rect x="76" y="36.9" width="2.4" height="16.2" fill="#262323"/><rect x="80" y="36.54" width="2.4" height="16.92" fill="#262323"/><rect x="84" y="38.84" width="2.4" height="12.33" fill="#262323"/><rect x="88" y="40.68" width="2.4" height="8.64" fill="#262323"/><rect x="92" y="43.16" width="2.4" height="3.69" fill="#262323"/><rect x="96" y="43.88" width="2.4" height="2.25" fill="#262323"/><rect x="100" y="44.5" width="2.4" height="1" fill="#262323"/><rect x="104" y="44.5" width="2.4" height="1" fill="#262323"/><rect x="108" y="44.5" width="2.4" height="1" fill="#262323"/><rect x="112" y="44.5" width="2.4" height="1" fill="#262323"/><rect x="116" y="44.5" width="2.4" height="1" fill="#262323"/><rect x="120" y="44.5" width="2.4" height="1" fill="#262323"/><rect x="124" y="44.5" width="2.4" height="1" fill="#262323"/><rect x="128" y="44.5" width="2.4" height="1" fill="#262323"/><rect x="132" y="44.5" width="2.4" height="1" fill="#262323"/><rect x="136" y="44.5" width="2.4" height="1" fill="#262323"/><rect x="140" y="44.5" width="2.4" height="1" fill="#262323"/><rect x="144" y="44.5" width="2.4" height="1" fill="#262323"/><rect x="148" y="44.5" width="2.4" height="1" fill="#262323"/><rect x="152" y="44.46" width="2.4" height="1.08" fill="#262323"/><rect x="156" y="44.5" width="2.4" height="1" fill="#262323"/><rect x="160" y="44.5" width="2.4" height="1" fill="#262323"/><rect x="164" y="44.5" width="2.4" height="1" fill="#262323"/><rect x="168" y="44.5" width="2.4" height="1" fill="#262323"/><rect x="172" y="43.25" width="2.4" height="3.51" fill="#262323"/><rect x="176" y="41.54" width="2.4" height="6.93" fill="#262323"/><rect x="180" y="41.45" width="2.4" height="7.11" fill="#262323"/><rect x="184" y="42.44" width="2.4" height="5.13" fill="#262323"/><rect x="188" y="40.14" width="2.4" height="9.72" fill="#262323"/><rect x="192" y="39.96" width="2.4" height="10.08" fill="#262323"/><rect x="196" y="37.39" width="2.4" height="15.21" fill="#262323"/><rect x="200" y="36.99" width="2.4" height="16.02" fill="#262323"/><rect x="204" y="39.2" width="2.4" height="11.61" fill="#262323"/><rect x="208" y="40.46" width="2.4" height="9.09" fill="#262323"/><rect x="212" y="41.67" width="2.4" height="6.66" fill="#262323"/><rect x="216" y="41.4" width="2.4" height="7.2" fill="#262323"/><rect x="220" y="42.71" width="2.4" height="4.59" fill="#262323"/><rect x="224" y="44.19" width="2.4" height="1.62" fill="#262323"/><rect x="228" y="44.01" width="2.4" height="1.98" fill="#262323"/><rect x="232" y="44.42" width="2.4" height="1.17" fill="#262323"/><rect x="236" y="39.6" width="2.4" height="10.8" fill="#262323"/><rect x="240" y="40.41" width="2.4" height="9.18" fill="#262323"/><rect x="244" y="40.46" width="2.4" height="9.09" fill="#262323"/><rect x="248" y="41.09" width="2.4" height="7.83" fill="#262323"/><rect x="252" y="39.65" width="2.4" height="10.71" fill="#262323"/><rect x="256" y="39.83" width="2.4" height="10.35" fill="#262323"/><rect x="260" y="42.71" width="2.4" height="4.59" fill="#262323"/><rect x="264" y="43.02" width="2.4" height="3.96" fill="#262323"/><rect x="268" y="39.87" width="2.4" height="10.26" fill="#262323"/><rect x="272" y="40.23" width="2.4" height="9.54" fill="#262323"/><rect x="276" y="39.47" width="2.4" height="11.07" fill="#262323"/><rect x="280" y="36.95" width="2.4" height="16.11" fill="#262323"/><rect x="284" y="36.86" width="2.4" height="16.29" fill="#262323"/><rect x="288" y="38.25" width="2.4" height="13.5" fill="#262323"/><rect x="292" y="40.5" width="2.4" height="9" fill="#262323"/><rect x="296" y="39.2" width="2.4" height="11.61" fill="#262323"/><rect x="300" y="43.83" width="2.4" height="2.34" fill="#262323"/><rect x="304" y="42.03" width="2.4" height="5.94" fill="#262323"/><rect x="308" y="41.58" width="2.4" height="6.84" fill="#262323"/><rect x="312" y="41.4" width="2.4" height="7.2" fill="#262323"/><rect x="316" y="41.4" width="2.4" height="7.2" fill="#262323"/><rect x="320" y="38.92" width="2.4" height="12.15" fill="#262323"/><rect x="324" y="43.47" width="2.4" height="3.06" fill="#262323"/><rect x="328" y="31.91" width="2.4" height="26.19" fill="#262323"/><rect x="332" y="26.6" width="2.4" height="36.81" fill="#262323"/><rect x="336" y="24.8" width="2.4" height="40.41" fill="#262323"/><rect x="340" y="27.99" width="2.4" height="34.02" fill="#262323"/><rect x="344" y="35.01" width="2.4" height="19.98" fill="#262323"/><rect x="348" y="41.58" width="2.4" height="6.84" fill="#262323"/><rect x="352" y="30.29" width="2.4" height="29.43" fill="#262323"/><rect x="356" y="27.41" width="2.4" height="35.19" fill="#262323"/><rect x="360" y="27.5" width="2.4" height="35.01" fill="#262323"/><rect x="364" y="37.58" width="2.4" height="14.85" fill="#262323"/><rect x="368" y="44.5" width="2.4" height="1" fill="#262323"/><rect x="372" y="39.92" width="2.4" height="10.17" fill="#262323"/><rect x="376" y="27" width="2.4" height="36" fill="#262323"/><rect x="380" y="31.73" width="2.4" height="26.55" fill="#262323"/><rect x="384" y="44.37" width="2.4" height="1.26" fill="#262323"/><rect x="388" y="44.5" width="2.4" height="1" fill="#262323"/><rect x="392" y="44.5" width="2.4" height="1" fill="#262323"/><rect x="396" y="44.5" width="2.4" height="1" fill="#262323"/><rect x="400" y="44.5" width="2.4" height="1" fill="#262323"/><rect x="404" y="44.5" width="2.4" height="1" fill="#262323"/><rect x="408" y="44.5" width="2.4" height="1" fill="#262323"/><rect x="412" y="44.5" width="2.4" height="1" fill="#262323"/><rect x="416" y="44.5" width="2.4" height="1" fill="#262323"/><rect x="420" y="44.24" width="2.4" height="1.53" fill="#262323"/><rect x="424" y="44.5" width="2.4" height="1" fill="#262323"/><rect x="428" y="44.5" width="2.4" height="1" fill="#262323"/><rect x="432" y="44.5" width="2.4" height="1" fill="#262323"/><rect x="436" y="44.5" width="2.4" height="1" fill="#262323"/><rect x="440" y="44.5" width="2.4" height="1" fill="#262323"/><rect x="444" y="44.5" width="2.4" height="1" fill="#262323"/><rect x="448" y="44.5" width="2.4" height="1" fill="#262323"/><rect x="452" y="44.5" width="2.4" height="1" fill="#262323"/><rect x="456" y="44.5" width="2.4" height="1" fill="#262323"/><rect x="460" y="44.5" width="2.4" height="1" fill="#262323"/><rect x="464" y="44.5" width="2.4" height="1" fill="#262323"/><rect x="468" y="44.5" width="2.4" height="1" fill="#262323"/><rect x="472" y="44.5" width="2.4" height="1" fill="#262323"/><rect x="476" y="44.5" width="2.4" height="1" fill="#262323"/><rect x="480" y="44.5" width="2.4" height="1" fill="#262323"/><rect x="484" y="44.5" width="2.4" height="1" fill="#262323"/><rect x="488" y="44.5" width="2.4" height="1" fill="#262323"/><rect x="492" y="44.5" width="2.4" height="1" fill="#262323"/><rect x="496" y="44.5" width="2.4" height="1" fill="#262323"/><rect x="500" y="44.5" width="2.4" height="1" fill="#262323"/><rect x="504" y="44.06" width="2.4" height="1.89" fill="#262323"/><rect x="508" y="41.67" width="2.4" height="6.66" fill="#262323"/><rect x="512" y="41.18" width="2.4" height="7.65" fill="#262323"/><rect x="516" y="41.76" width="2.4" height="6.48" fill="#262323"/><rect x="520" y="40.55" width="2.4" height="8.91" fill="#262323"/><rect x="524" y="34.92" width="2.4" height="20.16" fill="#262323"/><rect x="528" y="24.8" width="2.4" height="40.41" fill="#262323"/><rect x="532" y="29.66" width="2.4" height="30.69" fill="#262323"/><rect x="536" y="39.69" width="2.4" height="10.62" fill="#262323"/><rect x="540" y="37.76" width="2.4" height="14.49" fill="#262323"/><rect x="544" y="42.3" width="2.4" height="5.4" fill="#262323"/><rect x="548" y="44.5" width="2.4" height="1" fill="#262323"/><rect x="552" y="44.01" width="2.4" height="1.98" fill="#262323"/><rect x="556" y="33.66" width="2.4" height="22.68" fill="#262323"/><rect x="560" y="32.58" width="2.4" height="24.84" fill="#262323"/><rect x="564" y="34.07" width="2.4" height="21.87" fill="#262323"/><rect x="568" y="34.42" width="2.4" height="21.15" fill="#262323"/><rect x="572" y="36.63" width="2.4" height="16.74" fill="#262323"/><rect x="576" y="33.35" width="2.4" height="23.31" fill="#262323"/><rect x="580" y="37.98" width="2.4" height="14.04" fill="#262323"/><rect x="584" y="44.5" width="2.4" height="1" fill="#262323"/><rect x="588" y="44.06" width="2.4" height="1.89" fill="#262323"/><rect x="592" y="44.5" width="2.4" height="1" fill="#262323"/><rect x="596" y="44.5" width="2.4" height="1" fill="#262323"/><rect x="600" y="44.5" width="2.4" height="1" fill="#262323"/><rect x="604" y="44.5" width="2.4" height="1" fill="#262323"/><rect x="608" y="44.5" width="2.4" height="1" fill="#262323"/><rect x="612" y="44.5" width="2.4" height="1" fill="#262323"/><rect x="616" y="44.5" width="2.4" height="1" fill="#262323"/><rect x="620" y="44.5" width="2.4" height="1" fill="#262323"/><rect x="624" y="44.5" width="2.4" height="1" fill="#262323"/><rect x="628" y="38.84" width="2.4" height="12.33" fill="#262323"/><rect x="632" y="38.79" width="2.4" height="12.42" fill="#262323"/><rect x="636" y="38.48" width="2.4" height="13.05" fill="#262323"/><rect x="640" y="35.42" width="2.4" height="19.17" fill="#262323"/><rect x="644" y="36.41" width="2.4" height="17.19" fill="#262323"/><rect x="648" y="39.51" width="2.4" height="10.98" fill="#262323"/><rect x="652" y="36.81" width="2.4" height="16.38" fill="#262323"/><rect x="656" y="36.72" width="2.4" height="16.56" fill="#262323"/><rect x="660" y="40.59" width="2.4" height="8.82" fill="#262323"/><rect x="664" y="41.22" width="2.4" height="7.56" fill="#262323"/><rect x="668" y="38.12" width="2.4" height="13.77" fill="#262323"/><rect x="672" y="41.22" width="2.4" height="7.56" fill="#262323"/><rect x="676" y="41.72" width="2.4" height="6.57" fill="#262323"/><rect x="680" y="37.39" width="2.4" height="15.21" fill="#262323"/><rect x="684" y="37.03" width="2.4" height="15.93" fill="#262323"/><rect x="688" y="39.56" width="2.4" height="10.89" fill="#262323"/><rect x="692" y="41.9" width="2.4" height="6.21" fill="#262323"/><rect x="696" y="40.73" width="2.4" height="8.55" fill="#262323"/><rect x="700" y="37.58" width="2.4" height="14.85" fill="#262323"/><rect x="704" y="36.27" width="2.4" height="17.46" fill="#262323"/><rect x="708" y="35.42" width="2.4" height="19.17" fill="#262323"/><rect x="712" y="33.53" width="2.4" height="22.95" fill="#262323"/><rect x="716" y="44.5" width="2.4" height="1" fill="#262323"/><rect x="720" y="36.72" width="2.4" height="16.56" fill="#262323"/><rect x="724" y="34.02" width="2.4" height="21.96" fill="#262323"/><rect x="728" y="33.03" width="2.4" height="23.94" fill="#262323"/><rect x="732" y="43.11" width="2.4" height="3.78" fill="#262323"/><rect x="736" y="43.74" width="2.4" height="2.52" fill="#262323"/><rect x="740" y="44.5" width="2.4" height="1" fill="#262323"/><rect x="744" y="44.5" width="2.4" height="1" fill="#262323"/><rect x="748" y="44.5" width="2.4" height="1" fill="#262323"/><rect x="752" y="44.06" width="2.4" height="1.89" fill="#262323"/><rect x="756" y="44.5" width="2.4" height="1" fill="#262323"/><rect x="760" y="44.5" width="2.4" height="1" fill="#262323"/><rect x="764" y="44.5" width="2.4" height="1" fill="#262323"/><rect x="768" y="44.5" width="2.4" height="1" fill="#262323"/><rect x="772" y="44.5" width="2.4" height="1" fill="#262323"/><rect x="776" y="44.5" width="2.4" height="1" fill="#262323"/><rect x="780" y="44.06" width="2.4" height="1.89" fill="#262323"/><rect x="784" y="42.71" width="2.4" height="4.59" fill="#262323"/><rect x="788" y="30.92" width="2.4" height="28.17" fill="#262323"/><rect x="792" y="27.99" width="2.4" height="34.02" fill="#262323"/><rect x="796" y="37.44" width="2.4" height="15.12" fill="#262323"/><rect x="800" y="44.42" width="2.4" height="1.17" fill="#262323"/><rect x="804" y="44.5" width="2.4" height="1" fill="#262323"/><rect x="808" y="44.5" width="2.4" height="1" fill="#262323"/><rect x="812" y="44.5" width="2.4" height="1" fill="#262323"/><rect x="816" y="44.5" width="2.4" height="1" fill="#262323"/><rect x="820" y="44.5" width="2.4" height="1" fill="#262323"/><rect x="824" y="44.5" width="2.4" height="1" fill="#262323"/><rect x="828" y="39.15" width="2.4" height="11.7" fill="#262323"/><rect x="832" y="24.71" width="2.4" height="40.59" fill="#262323"/><rect x="836" y="30.83" width="2.4" height="28.35" fill="#262323"/><rect x="840" y="41.72" width="2.4" height="6.57" fill="#262323"/><rect x="844" y="44.5" width="2.4" height="1" fill="#262323"/><rect x="848" y="44.5" width="2.4" height="1" fill="#262323"/><rect x="852" y="44.5" width="2.4" height="1" fill="#262323"/><rect x="856" y="44.5" width="2.4" height="1" fill="#262323"/><rect x="860" y="44.5" width="2.4" height="1" fill="#262323"/><rect x="864" y="44.5" width="2.4" height="1" fill="#262323"/><rect x="868" y="44.5" width="2.4" height="1" fill="#262323"/><rect x="872" y="44.5" width="2.4" height="1" fill="#262323"/><rect x="876" y="44.5" width="2.4" height="1" fill="#262323"/><rect x="880" y="44.5" width="2.4" height="1" fill="#262323"/><rect x="884" y="44.5" width="2.4" height="1" fill="#262323"/><rect x="888" y="44.5" width="2.4" height="1" fill="#262323"/><rect x="892" y="44.5" width="2.4" height="1" fill="#262323"/><rect x="896" y="44.5" width="2.4" height="1" fill="#262323"/><rect x="900" y="44.5" width="2.4" height="1" fill="#262323"/><rect x="904" y="44.5" width="2.4" height="1" fill="#262323"/><rect x="908" y="44.5" width="2.4" height="1" fill="#262323"/><rect x="912" y="44.5" width="2.4" height="1" fill="#262323"/><rect x="916" y="44.5" width="2.4" height="1" fill="#262323"/><rect x="920" y="44.5" width="2.4" height="1" fill="#262323"/><rect x="924" y="44.5" width="2.4" height="1" fill="#262323"/><rect x="928" y="44.5" width="2.4" height="1" fill="#262323"/><rect x="932" y="44.5" width="2.4" height="1" fill="#262323"/><rect x="936" y="44.5" width="2.4" height="1" fill="#262323"/><rect x="940" y="44.5" width="2.4" height="1" fill="#262323"/><rect x="944" y="44.5" width="2.4" height="1" fill="#262323"/><rect x="948" y="44.5" width="2.4" height="1" fill="#262323"/><rect x="952" y="44.5" width="2.4" height="1" fill="#262323"/><rect x="956" y="44.5" width="2.4" height="1" fill="#262323"/><rect x="960" y="44.5" width="2.4" height="1" fill="#262323"/><rect x="964" y="44.5" width="2.4" height="1" fill="#262323"/><rect x="968" y="44.5" width="2.4" height="1" fill="#262323"/><rect x="972" y="44.5" width="2.4" height="1" fill="#262323"/><rect x="976" y="44.5" width="2.4" height="1" fill="#262323"/><rect x="980" y="44.5" width="2.4" height="1" fill="#262323"/><rect x="984" y="44.5" width="2.4" height="1" fill="#262323"/><rect x="988" y="44.5" width="2.4" height="1" fill="#262323"/><rect x="992" y="44.5" width="2.4" height="1" fill="#262323"/><rect x="996" y="44.5" width="2.4" height="1" fill="#262323"/><rect x="1000" y="44.5" width="2.4" height="1" fill="#262323"/><rect x="1004" y="44.5" width="2.4" height="1" fill="#262323"/><rect x="1008" y="44.5" width="2.4" height="1" fill="#262323"/><rect x="1012" y="44.5" width="2.4" height="1" fill="#262323"/><rect x="1016" y="44.5" width="2.4" height="1" fill="#262323"/><rect x="1020" y="44.5" width="2.4" height="1" fill="#262323"/><rect x="1024" y="38.7" width="2.4" height="12.6" fill="#262323"/><rect x="1028" y="35.91" width="2.4" height="18.18" fill="#262323"/><rect x="1032" y="36.95" width="2.4" height="16.11" fill="#262323"/><rect x="1036" y="36.41" width="2.4" height="17.19" fill="#262323"/><rect x="1040" y="34.34" width="2.4" height="21.33" fill="#262323"/><rect x="1044" y="34.47" width="2.4" height="21.06" fill="#262323"/><rect x="1048" y="32.13" width="2.4" height="25.74" fill="#262323"/><rect x="1052" y="32.27" width="2.4" height="25.47" fill="#262323"/><rect x="1056" y="36.41" width="2.4" height="17.19" fill="#262323"/><rect x="1060" y="37.94" width="2.4" height="14.13" fill="#262323"/><rect x="1064" y="37.98" width="2.4" height="14.04" fill="#262323"/><rect x="1068" y="36.63" width="2.4" height="16.74" fill="#262323"/><rect x="1072" y="35.73" width="2.4" height="18.54" fill="#262323"/><rect x="1076" y="22.73" width="2.4" height="44.55" fill="#262323"/><rect x="1080" y="20.29" width="2.4" height="49.41" fill="#262323"/><rect x="1084" y="36.23" width="2.4" height="17.55" fill="#262323"/><rect x="1088" y="39.06" width="2.4" height="11.88" fill="#262323"/><rect x="1092" y="38.21" width="2.4" height="13.59" fill="#262323"/><rect x="1096" y="38.84" width="2.4" height="12.33" fill="#262323"/><rect x="1100" y="39.78" width="2.4" height="10.44" fill="#262323"/><rect x="1104" y="38.52" width="2.4" height="12.96" fill="#262323"/><rect x="1108" y="39.96" width="2.4" height="10.08" fill="#262323"/><rect x="1112" y="38.61" width="2.4" height="12.78" fill="#262323"/><rect x="1116" y="37.62" width="2.4" height="14.76" fill="#262323"/><rect x="1120" y="31.82" width="2.4" height="26.37" fill="#262323"/><rect x="1124" y="32.99" width="2.4" height="24.03" fill="#262323"/><rect x="1128" y="36.99" width="2.4" height="16.02" fill="#262323"/><rect x="1132" y="34.38" width="2.4" height="21.24" fill="#262323"/><rect x="1136" y="37.49" width="2.4" height="15.03" fill="#262323"/><rect x="1140" y="40.28" width="2.4" height="9.45" fill="#262323"/><rect x="1144" y="40.23" width="2.4" height="9.54" fill="#262323"/><rect x="1148" y="41.99" width="2.4" height="6.03" fill="#262323"/><rect x="1152" y="42.03" width="2.4" height="5.94" fill="#262323"/><rect x="1156" y="42.39" width="2.4" height="5.22" fill="#262323"/><rect x="1160" y="40.5" width="2.4" height="9" fill="#262323"/><rect x="1164" y="38.61" width="2.4" height="12.78" fill="#262323"/><rect x="1168" y="42.39" width="2.4" height="5.22" fill="#262323"/><rect x="1172" y="39.92" width="2.4" height="10.17" fill="#262323"/><rect x="1176" y="38.61" width="2.4" height="12.78" fill="#262323"/><rect x="1180" y="36.32" width="2.4" height="17.37" fill="#262323"/><rect x="1184" y="38.3" width="2.4" height="13.41" fill="#262323"/><rect x="1188" y="40.91" width="2.4" height="8.19" fill="#262323"/><rect x="1192" y="42.75" width="2.4" height="4.5" fill="#262323"/><rect x="1196" y="41.72" width="2.4" height="6.57" fill="#262323"/>
<rect x="0" y="146.5" width="2.4" height="1" fill="#8a7f7a"/><rect x="4" y="146.5" width="2.4" height="1" fill="#8a7f7a"/><rect x="8" y="146.24" width="2.4" height="1.53" fill="#8a7f7a"/><rect x="12" y="146.1" width="2.4" height="1.8" fill="#8a7f7a"/><rect x="16" y="145.88" width="2.4" height="2.25" fill="#8a7f7a"/><rect x="20" y="145.92" width="2.4" height="2.16" fill="#8a7f7a"/><rect x="24" y="146.5" width="2.4" height="1" fill="#8a7f7a"/><rect x="28" y="146.5" width="2.4" height="1" fill="#8a7f7a"/><rect x="32" y="146.5" width="2.4" height="1" fill="#8a7f7a"/><rect x="36" y="146.5" width="2.4" height="1" fill="#8a7f7a"/><rect x="40" y="146.5" width="2.4" height="1" fill="#8a7f7a"/><rect x="44" y="146.5" width="2.4" height="1" fill="#8a7f7a"/><rect x="48" y="146.5" width="2.4" height="1" fill="#8a7f7a"/><rect x="52" y="146.5" width="2.4" height="1" fill="#8a7f7a"/><rect x="56" y="146.5" width="2.4" height="1" fill="#8a7f7a"/><rect x="60" y="146.5" width="2.4" height="1" fill="#8a7f7a"/><rect x="64" y="146.5" width="2.4" height="1" fill="#8a7f7a"/><rect x="68" y="146.5" width="2.4" height="1" fill="#8a7f7a"/><rect x="72" y="146.5" width="2.4" height="1" fill="#8a7f7a"/><rect x="76" y="146.5" width="2.4" height="1" fill="#8a7f7a"/><rect x="80" y="146.5" width="2.4" height="1" fill="#8a7f7a"/><rect x="84" y="146.5" width="2.4" height="1" fill="#8a7f7a"/><rect x="88" y="146.5" width="2.4" height="1" fill="#8a7f7a"/><rect x="92" y="146.5" width="2.4" height="1" fill="#8a7f7a"/><rect x="96" y="146.5" width="2.4" height="1" fill="#8a7f7a"/><rect x="100" y="146.5" width="2.4" height="1" fill="#8a7f7a"/><rect x="104" y="146.5" width="2.4" height="1" fill="#8a7f7a"/><rect x="108" y="146.5" width="2.4" height="1" fill="#8a7f7a"/><rect x="112" y="146.5" width="2.4" height="1" fill="#8a7f7a"/><rect x="116" y="146.5" width="2.4" height="1" fill="#8a7f7a"/><rect x="120" y="144.79" width="2.4" height="4.41" fill="#8a7f7a"/><rect x="124" y="144.53" width="2.4" height="4.95" fill="#8a7f7a"/><rect x="128" y="145.02" width="2.4" height="3.96" fill="#8a7f7a"/><rect x="132" y="145.74" width="2.4" height="2.52" fill="#8a7f7a"/><rect x="136" y="145.74" width="2.4" height="2.52" fill="#8a7f7a"/><rect x="140" y="146.01" width="2.4" height="1.98" fill="#8a7f7a"/><rect x="144" y="146.28" width="2.4" height="1.44" fill="#8a7f7a"/><rect x="148" y="145.47" width="2.4" height="3.06" fill="#8a7f7a"/><rect x="152" y="145.88" width="2.4" height="2.25" fill="#8a7f7a"/><rect x="156" y="146.5" width="2.4" height="1" fill="#8a7f7a"/><rect x="160" y="144.84" width="2.4" height="4.32" fill="#8a7f7a"/><rect x="164" y="145.29" width="2.4" height="3.42" fill="#8a7f7a"/><rect x="168" y="145.51" width="2.4" height="2.97" fill="#8a7f7a"/><rect x="172" y="145.6" width="2.4" height="2.79" fill="#8a7f7a"/><rect x="176" y="146.24" width="2.4" height="1.53" fill="#8a7f7a"/><rect x="180" y="146.1" width="2.4" height="1.8" fill="#8a7f7a"/><rect x="184" y="145.34" width="2.4" height="3.33" fill="#8a7f7a"/><rect x="188" y="145.29" width="2.4" height="3.42" fill="#8a7f7a"/><rect x="192" y="145.2" width="2.4" height="3.6" fill="#8a7f7a"/><rect x="196" y="145.29" width="2.4" height="3.42" fill="#8a7f7a"/><rect x="200" y="145.25" width="2.4" height="3.51" fill="#8a7f7a"/><rect x="204" y="145.29" width="2.4" height="3.42" fill="#8a7f7a"/><rect x="208" y="145.83" width="2.4" height="2.34" fill="#8a7f7a"/><rect x="212" y="146.32" width="2.4" height="1.35" fill="#8a7f7a"/><rect x="216" y="146.5" width="2.4" height="1" fill="#8a7f7a"/><rect x="220" y="146.5" width="2.4" height="1" fill="#8a7f7a"/><rect x="224" y="146.5" width="2.4" height="1" fill="#8a7f7a"/><rect x="228" y="143.58" width="2.4" height="6.84" fill="#8a7f7a"/><rect x="232" y="144.26" width="2.4" height="5.49" fill="#8a7f7a"/><rect x="236" y="144.12" width="2.4" height="5.76" fill="#8a7f7a"/><rect x="240" y="146.01" width="2.4" height="1.98" fill="#8a7f7a"/><rect x="244" y="145.43" width="2.4" height="3.15" fill="#8a7f7a"/><rect x="248" y="145.65" width="2.4" height="2.7" fill="#8a7f7a"/><rect x="252" y="146.01" width="2.4" height="1.98" fill="#8a7f7a"/><rect x="256" y="145.07" width="2.4" height="3.87" fill="#8a7f7a"/><rect x="260" y="144.84" width="2.4" height="4.32" fill="#8a7f7a"/><rect x="264" y="145.7" width="2.4" height="2.61" fill="#8a7f7a"/><rect x="268" y="146.06" width="2.4" height="1.89" fill="#8a7f7a"/><rect x="272" y="144.39" width="2.4" height="5.22" fill="#8a7f7a"/><rect x="276" y="145.11" width="2.4" height="3.78" fill="#8a7f7a"/><rect x="280" y="145.43" width="2.4" height="3.15" fill="#8a7f7a"/><rect x="284" y="145.56" width="2.4" height="2.88" fill="#8a7f7a"/><rect x="288" y="146.06" width="2.4" height="1.89" fill="#8a7f7a"/><rect x="292" y="145.74" width="2.4" height="2.52" fill="#8a7f7a"/><rect x="296" y="145.43" width="2.4" height="3.15" fill="#8a7f7a"/><rect x="300" y="145.43" width="2.4" height="3.15" fill="#8a7f7a"/><rect x="304" y="145.74" width="2.4" height="2.52" fill="#8a7f7a"/><rect x="308" y="146.28" width="2.4" height="1.44" fill="#8a7f7a"/><rect x="312" y="146.5" width="2.4" height="1" fill="#8a7f7a"/><rect x="316" y="146.5" width="2.4" height="1" fill="#8a7f7a"/><rect x="320" y="146.5" width="2.4" height="1" fill="#8a7f7a"/><rect x="324" y="146.5" width="2.4" height="1" fill="#8a7f7a"/><rect x="328" y="146.5" width="2.4" height="1" fill="#8a7f7a"/><rect x="332" y="145.88" width="2.4" height="2.25" fill="#8a7f7a"/><rect x="336" y="144.79" width="2.4" height="4.41" fill="#8a7f7a"/><rect x="340" y="144.39" width="2.4" height="5.22" fill="#8a7f7a"/><rect x="344" y="146.5" width="2.4" height="1" fill="#8a7f7a"/><rect x="348" y="146.5" width="2.4" height="1" fill="#8a7f7a"/><rect x="352" y="146.5" width="2.4" height="1" fill="#8a7f7a"/><rect x="356" y="145.29" width="2.4" height="3.42" fill="#8a7f7a"/><rect x="360" y="142.77" width="2.4" height="8.46" fill="#8a7f7a"/><rect x="364" y="142.68" width="2.4" height="8.64" fill="#8a7f7a"/><rect x="368" y="144.21" width="2.4" height="5.58" fill="#8a7f7a"/><rect x="372" y="144.03" width="2.4" height="5.94" fill="#8a7f7a"/><rect x="376" y="144.35" width="2.4" height="5.31" fill="#8a7f7a"/><rect x="380" y="145.92" width="2.4" height="2.16" fill="#8a7f7a"/><rect x="384" y="144.44" width="2.4" height="5.13" fill="#8a7f7a"/><rect x="388" y="141.87" width="2.4" height="10.26" fill="#8a7f7a"/><rect x="392" y="142.41" width="2.4" height="9.18" fill="#8a7f7a"/><rect x="396" y="142.95" width="2.4" height="8.1" fill="#8a7f7a"/><rect x="400" y="143.26" width="2.4" height="7.47" fill="#8a7f7a"/><rect x="404" y="144.44" width="2.4" height="5.13" fill="#8a7f7a"/><rect x="408" y="146.24" width="2.4" height="1.53" fill="#8a7f7a"/><rect x="412" y="146.1" width="2.4" height="1.8" fill="#8a7f7a"/><rect x="416" y="145.65" width="2.4" height="2.7" fill="#8a7f7a"/><rect x="420" y="145.74" width="2.4" height="2.52" fill="#8a7f7a"/><rect x="424" y="145.79" width="2.4" height="2.43" fill="#8a7f7a"/><rect x="428" y="146.42" width="2.4" height="1.17" fill="#8a7f7a"/><rect x="432" y="143.72" width="2.4" height="6.57" fill="#8a7f7a"/><rect x="436" y="143.85" width="2.4" height="6.3" fill="#8a7f7a"/><rect x="440" y="146.24" width="2.4" height="1.53" fill="#8a7f7a"/><rect x="444" y="142.77" width="2.4" height="8.46" fill="#8a7f7a"/><rect x="448" y="144.48" width="2.4" height="5.04" fill="#8a7f7a"/><rect x="452" y="142.91" width="2.4" height="8.19" fill="#8a7f7a"/><rect x="456" y="143.4" width="2.4" height="7.2" fill="#8a7f7a"/><rect x="460" y="146.19" width="2.4" height="1.62" fill="#8a7f7a"/><rect x="464" y="145.43" width="2.4" height="3.15" fill="#8a7f7a"/><rect x="468" y="145.43" width="2.4" height="3.15" fill="#8a7f7a"/><rect x="472" y="146.01" width="2.4" height="1.98" fill="#8a7f7a"/><rect x="476" y="144.35" width="2.4" height="5.31" fill="#8a7f7a"/><rect x="480" y="143.31" width="2.4" height="7.38" fill="#8a7f7a"/><rect x="484" y="144.21" width="2.4" height="5.58" fill="#8a7f7a"/><rect x="488" y="146.37" width="2.4" height="1.26" fill="#8a7f7a"/><rect x="492" y="145.02" width="2.4" height="3.96" fill="#8a7f7a"/><rect x="496" y="145.51" width="2.4" height="2.97" fill="#8a7f7a"/><rect x="500" y="146.37" width="2.4" height="1.26" fill="#8a7f7a"/><rect x="504" y="145.97" width="2.4" height="2.07" fill="#8a7f7a"/><rect x="508" y="145.92" width="2.4" height="2.16" fill="#8a7f7a"/><rect x="512" y="145.07" width="2.4" height="3.87" fill="#8a7f7a"/><rect x="516" y="144.89" width="2.4" height="4.23" fill="#8a7f7a"/><rect x="520" y="146.42" width="2.4" height="1.17" fill="#8a7f7a"/><rect x="524" y="145.65" width="2.4" height="2.7" fill="#8a7f7a"/><rect x="528" y="144.26" width="2.4" height="5.49" fill="#8a7f7a"/><rect x="532" y="145.29" width="2.4" height="3.42" fill="#8a7f7a"/><rect x="536" y="145.79" width="2.4" height="2.43" fill="#8a7f7a"/><rect x="540" y="146.5" width="2.4" height="1" fill="#8a7f7a"/><rect x="544" y="146.5" width="2.4" height="1" fill="#8a7f7a"/><rect x="548" y="146.5" width="2.4" height="1" fill="#8a7f7a"/><rect x="552" y="145.7" width="2.4" height="2.61" fill="#8a7f7a"/><rect x="556" y="144.62" width="2.4" height="4.77" fill="#8a7f7a"/><rect x="560" y="145.34" width="2.4" height="3.33" fill="#8a7f7a"/><rect x="564" y="144.71" width="2.4" height="4.59" fill="#8a7f7a"/><rect x="568" y="145.74" width="2.4" height="2.52" fill="#8a7f7a"/><rect x="572" y="145.43" width="2.4" height="3.15" fill="#8a7f7a"/><rect x="576" y="146.5" width="2.4" height="1" fill="#8a7f7a"/><rect x="580" y="146.1" width="2.4" height="1.8" fill="#8a7f7a"/><rect x="584" y="146.5" width="2.4" height="1" fill="#8a7f7a"/><rect x="588" y="146.24" width="2.4" height="1.53" fill="#8a7f7a"/><rect x="592" y="146.5" width="2.4" height="1" fill="#8a7f7a"/><rect x="596" y="146.5" width="2.4" height="1" fill="#8a7f7a"/><rect x="600" y="146.5" width="2.4" height="1" fill="#8a7f7a"/><rect x="604" y="146.24" width="2.4" height="1.53" fill="#8a7f7a"/><rect x="608" y="146.32" width="2.4" height="1.35" fill="#8a7f7a"/><rect x="612" y="146.5" width="2.4" height="1" fill="#8a7f7a"/><rect x="616" y="146.5" width="2.4" height="1" fill="#8a7f7a"/><rect x="620" y="146.5" width="2.4" height="1" fill="#8a7f7a"/><rect x="624" y="146.5" width="2.4" height="1" fill="#8a7f7a"/><rect x="628" y="146.5" width="2.4" height="1" fill="#8a7f7a"/><rect x="632" y="146.5" width="2.4" height="1" fill="#8a7f7a"/><rect x="636" y="146.5" width="2.4" height="1" fill="#8a7f7a"/><rect x="640" y="146.5" width="2.4" height="1" fill="#8a7f7a"/><rect x="644" y="146.5" width="2.4" height="1" fill="#8a7f7a"/><rect x="648" y="146.5" width="2.4" height="1" fill="#8a7f7a"/><rect x="652" y="146.5" width="2.4" height="1" fill="#8a7f7a"/><rect x="656" y="146.5" width="2.4" height="1" fill="#8a7f7a"/><rect x="660" y="146.5" width="2.4" height="1" fill="#8a7f7a"/><rect x="664" y="146.5" width="2.4" height="1" fill="#8a7f7a"/><rect x="668" y="146.5" width="2.4" height="1" fill="#8a7f7a"/><rect x="672" y="146.5" width="2.4" height="1" fill="#8a7f7a"/><rect x="676" y="146.5" width="2.4" height="1" fill="#8a7f7a"/><rect x="680" y="146.5" width="2.4" height="1" fill="#8a7f7a"/><rect x="684" y="146.5" width="2.4" height="1" fill="#8a7f7a"/><rect x="688" y="146.5" width="2.4" height="1" fill="#8a7f7a"/><rect x="692" y="146.5" width="2.4" height="1" fill="#8a7f7a"/><rect x="696" y="146.5" width="2.4" height="1" fill="#8a7f7a"/><rect x="700" y="146.5" width="2.4" height="1" fill="#8a7f7a"/><rect x="704" y="146.5" width="2.4" height="1" fill="#8a7f7a"/><rect x="708" y="146.5" width="2.4" height="1" fill="#8a7f7a"/><rect x="712" y="146.5" width="2.4" height="1" fill="#8a7f7a"/><rect x="716" y="146.5" width="2.4" height="1" fill="#8a7f7a"/><rect x="720" y="146.5" width="2.4" height="1" fill="#8a7f7a"/><rect x="724" y="146.5" width="2.4" height="1" fill="#8a7f7a"/><rect x="728" y="146.5" width="2.4" height="1" fill="#8a7f7a"/><rect x="732" y="146.42" width="2.4" height="1.17" fill="#8a7f7a"/><rect x="736" y="145.07" width="2.4" height="3.87" fill="#8a7f7a"/><rect x="740" y="146.5" width="2.4" height="1" fill="#8a7f7a"/><rect x="744" y="144.62" width="2.4" height="4.77" fill="#8a7f7a"/><rect x="748" y="145.2" width="2.4" height="3.6" fill="#8a7f7a"/><rect x="752" y="146.01" width="2.4" height="1.98" fill="#8a7f7a"/><rect x="756" y="145.25" width="2.4" height="3.51" fill="#8a7f7a"/><rect x="760" y="145.38" width="2.4" height="3.24" fill="#8a7f7a"/><rect x="764" y="146.1" width="2.4" height="1.8" fill="#8a7f7a"/><rect x="768" y="146.5" width="2.4" height="1" fill="#8a7f7a"/><rect x="772" y="146.5" width="2.4" height="1" fill="#8a7f7a"/><rect x="776" y="146.5" width="2.4" height="1" fill="#8a7f7a"/><rect x="780" y="146.5" width="2.4" height="1" fill="#8a7f7a"/><rect x="784" y="146.5" width="2.4" height="1" fill="#8a7f7a"/><rect x="788" y="146.5" width="2.4" height="1" fill="#8a7f7a"/><rect x="792" y="146.5" width="2.4" height="1" fill="#8a7f7a"/><rect x="796" y="146.5" width="2.4" height="1" fill="#8a7f7a"/><rect x="800" y="146.5" width="2.4" height="1" fill="#8a7f7a"/><rect x="804" y="146.5" width="2.4" height="1" fill="#8a7f7a"/><rect x="808" y="146.5" width="2.4" height="1" fill="#8a7f7a"/><rect x="812" y="146.5" width="2.4" height="1" fill="#8a7f7a"/><rect x="816" y="146.5" width="2.4" height="1" fill="#8a7f7a"/><rect x="820" y="144.89" width="2.4" height="4.23" fill="#8a7f7a"/><rect x="824" y="145.83" width="2.4" height="2.34" fill="#8a7f7a"/><rect x="828" y="145.74" width="2.4" height="2.52" fill="#8a7f7a"/><rect x="832" y="145.56" width="2.4" height="2.88" fill="#8a7f7a"/><rect x="836" y="145.88" width="2.4" height="2.25" fill="#8a7f7a"/><rect x="840" y="145.97" width="2.4" height="2.07" fill="#8a7f7a"/><rect x="844" y="145.79" width="2.4" height="2.43" fill="#8a7f7a"/><rect x="848" y="145.88" width="2.4" height="2.25" fill="#8a7f7a"/><rect x="852" y="146.5" width="2.4" height="1" fill="#8a7f7a"/><rect x="856" y="146.5" width="2.4" height="1" fill="#8a7f7a"/><rect x="860" y="146.5" width="2.4" height="1" fill="#8a7f7a"/><rect x="864" y="145.7" width="2.4" height="2.61" fill="#8a7f7a"/><rect x="868" y="143.4" width="2.4" height="7.2" fill="#8a7f7a"/><rect x="872" y="144.07" width="2.4" height="5.85" fill="#8a7f7a"/><rect x="876" y="144.44" width="2.4" height="5.13" fill="#8a7f7a"/><rect x="880" y="145.92" width="2.4" height="2.16" fill="#8a7f7a"/><rect x="884" y="145.47" width="2.4" height="3.06" fill="#8a7f7a"/><rect x="888" y="145.11" width="2.4" height="3.78" fill="#8a7f7a"/><rect x="892" y="145.88" width="2.4" height="2.25" fill="#8a7f7a"/><rect x="896" y="146.5" width="2.4" height="1" fill="#8a7f7a"/><rect x="900" y="145.16" width="2.4" height="3.69" fill="#8a7f7a"/><rect x="904" y="146.1" width="2.4" height="1.8" fill="#8a7f7a"/><rect x="908" y="145.65" width="2.4" height="2.7" fill="#8a7f7a"/><rect x="912" y="145.47" width="2.4" height="3.06" fill="#8a7f7a"/><rect x="916" y="145.83" width="2.4" height="2.34" fill="#8a7f7a"/><rect x="920" y="146.01" width="2.4" height="1.98" fill="#8a7f7a"/><rect x="924" y="145.56" width="2.4" height="2.88" fill="#8a7f7a"/><rect x="928" y="146.06" width="2.4" height="1.89" fill="#8a7f7a"/><rect x="932" y="146.1" width="2.4" height="1.8" fill="#8a7f7a"/><rect x="936" y="145.74" width="2.4" height="2.52" fill="#8a7f7a"/><rect x="940" y="146.5" width="2.4" height="1" fill="#8a7f7a"/><rect x="944" y="145.92" width="2.4" height="2.16" fill="#8a7f7a"/><rect x="948" y="146.32" width="2.4" height="1.35" fill="#8a7f7a"/><rect x="952" y="146.5" width="2.4" height="1" fill="#8a7f7a"/><rect x="956" y="146.5" width="2.4" height="1" fill="#8a7f7a"/><rect x="960" y="145.56" width="2.4" height="2.88" fill="#8a7f7a"/><rect x="964" y="145.97" width="2.4" height="2.07" fill="#8a7f7a"/><rect x="968" y="145.7" width="2.4" height="2.61" fill="#8a7f7a"/><rect x="972" y="146.5" width="2.4" height="1" fill="#8a7f7a"/><rect x="976" y="146.42" width="2.4" height="1.17" fill="#8a7f7a"/><rect x="980" y="146.46" width="2.4" height="1.08" fill="#8a7f7a"/><rect x="984" y="146.5" width="2.4" height="1" fill="#8a7f7a"/><rect x="988" y="146.06" width="2.4" height="1.89" fill="#8a7f7a"/><rect x="992" y="146.1" width="2.4" height="1.8" fill="#8a7f7a"/><rect x="996" y="146.46" width="2.4" height="1.08" fill="#8a7f7a"/><rect x="1000" y="146.5" width="2.4" height="1" fill="#8a7f7a"/><rect x="1004" y="146.5" width="2.4" height="1" fill="#8a7f7a"/><rect x="1008" y="146.5" width="2.4" height="1" fill="#8a7f7a"/><rect x="1012" y="146.5" width="2.4" height="1" fill="#8a7f7a"/><rect x="1016" y="146.5" width="2.4" height="1" fill="#8a7f7a"/><rect x="1020" y="146.5" width="2.4" height="1" fill="#8a7f7a"/><rect x="1024" y="146.5" width="2.4" height="1" fill="#8a7f7a"/><rect x="1028" y="146.5" width="2.4" height="1" fill="#8a7f7a"/><rect x="1032" y="146.5" width="2.4" height="1" fill="#8a7f7a"/><rect x="1036" y="146.5" width="2.4" height="1" fill="#8a7f7a"/><rect x="1040" y="146.5" width="2.4" height="1" fill="#8a7f7a"/><rect x="1044" y="146.5" width="2.4" height="1" fill="#8a7f7a"/><rect x="1048" y="146.5" width="2.4" height="1" fill="#8a7f7a"/><rect x="1052" y="146.5" width="2.4" height="1" fill="#8a7f7a"/><rect x="1056" y="146.5" width="2.4" height="1" fill="#8a7f7a"/><rect x="1060" y="146.5" width="2.4" height="1" fill="#8a7f7a"/><rect x="1064" y="146.5" width="2.4" height="1" fill="#8a7f7a"/><rect x="1068" y="146.5" width="2.4" height="1" fill="#8a7f7a"/><rect x="1072" y="146.5" width="2.4" height="1" fill="#8a7f7a"/><rect x="1076" y="146.5" width="2.4" height="1" fill="#8a7f7a"/><rect x="1080" y="146.5" width="2.4" height="1" fill="#8a7f7a"/><rect x="1084" y="146.5" width="2.4" height="1" fill="#8a7f7a"/><rect x="1088" y="146.5" width="2.4" height="1" fill="#8a7f7a"/><rect x="1092" y="146.5" width="2.4" height="1" fill="#8a7f7a"/><rect x="1096" y="146.5" width="2.4" height="1" fill="#8a7f7a"/><rect x="1100" y="146.5" width="2.4" height="1" fill="#8a7f7a"/><rect x="1104" y="146.5" width="2.4" height="1" fill="#8a7f7a"/><rect x="1108" y="146.5" width="2.4" height="1" fill="#8a7f7a"/><rect x="1112" y="146.5" width="2.4" height="1" fill="#8a7f7a"/><rect x="1116" y="146.5" width="2.4" height="1" fill="#8a7f7a"/><rect x="1120" y="146.5" width="2.4" height="1" fill="#8a7f7a"/><rect x="1124" y="146.5" width="2.4" height="1" fill="#8a7f7a"/><rect x="1128" y="146.5" width="2.4" height="1" fill="#8a7f7a"/><rect x="1132" y="146.5" width="2.4" height="1" fill="#8a7f7a"/><rect x="1136" y="146.5" width="2.4" height="1" fill="#8a7f7a"/><rect x="1140" y="146.5" width="2.4" height="1" fill="#8a7f7a"/><rect x="1144" y="146.5" width="2.4" height="1" fill="#8a7f7a"/><rect x="1148" y="146.5" width="2.4" height="1" fill="#8a7f7a"/><rect x="1152" y="146.5" width="2.4" height="1" fill="#8a7f7a"/><rect x="1156" y="146.5" width="2.4" height="1" fill="#8a7f7a"/><rect x="1160" y="146.5" width="2.4" height="1" fill="#8a7f7a"/><rect x="1164" y="146.5" width="2.4" height="1" fill="#8a7f7a"/><rect x="1168" y="146.5" width="2.4" height="1" fill="#8a7f7a"/><rect x="1172" y="146.5" width="2.4" height="1" fill="#8a7f7a"/><rect x="1176" y="146.5" width="2.4" height="1" fill="#8a7f7a"/><rect x="1180" y="146.5" width="2.4" height="1" fill="#8a7f7a"/><rect x="1184" y="146.5" width="2.4" height="1" fill="#8a7f7a"/><rect x="1188" y="146.5" width="2.4" height="1" fill="#8a7f7a"/><rect x="1192" y="146.5" width="2.4" height="1" fill="#8a7f7a"/><rect x="1196" y="146.5" width="2.4" height="1" fill="#8a7f7a"/>
</svg>
